<?xml version="1.0" encoding="UTF-8"?>
<!DOCTYPE svg PUBLIC "-//W3C//DTD SVG 1.1//EN" "http://www.w3.org/Graphics/SVG/1.1/DTD/svg11.dtd">
<svg xmlns="http://www.w3.org/2000/svg" version="1.1" width="640px" height="640px" style="shape-rendering:geometricPrecision; text-rendering:geometricPrecision; image-rendering:optimizeQuality; fill-rule:evenodd; clip-rule:evenodd" xmlns:xlink="http://www.w3.org/1999/xlink">
<g><path style="opacity:0.975" fill="#00a77d" d="M 298.5,40.5 C 367.763,37.4199 428.763,57.9199 481.5,102C 531.649,150.095 554.482,208.929 550,278.5C 548.833,279.667 547.667,280.833 546.5,282C 533.5,282.667 520.5,282.667 507.5,282C 505.274,280.773 503.774,278.939 503,276.5C 501.066,181.599 454.566,121.432 363.5,96C 313.761,84.7738 265.761,89.7738 219.5,111C 213.166,114.165 207.166,117.831 201.5,122C 218.47,167.633 247.803,202.967 289.5,228C 320.764,245.453 354.097,252.12 389.5,248C 391.041,246.421 392.208,244.587 393,242.5C 393.333,235.167 393.667,227.833 394,220.5C 395.185,218.156 397.018,217.323 399.5,218C 422.95,235.116 446.117,252.616 469,270.5C 469.79,273.634 469.457,276.634 468,279.5C 445.768,296.698 423.268,313.532 400.5,330C 397.648,330.913 395.481,330.08 394,327.5C 393.667,319.833 393.333,312.167 393,304.5C 391.347,300.518 388.347,298.518 384,298.5C 307.064,301.36 244.397,273.026 196,213.5C 182.388,195.956 171.055,176.956 162,156.5C 140.773,182.857 129.44,212.857 128,246.5C 128.903,247.701 130.069,248.535 131.5,249C 139.244,249.103 146.911,249.769 154.5,251C 156.787,253.243 156.953,255.743 155,258.5C 138.667,280.167 122.333,301.833 106,323.5C 102.555,327.662 98.7212,328.162 94.5,325C 78.5446,303.589 62.7113,282.089 47,260.5C 42.9663,255.627 43.7996,252.127 49.5,250C 57.1667,249.667 64.8333,249.333 72.5,249C 73.3333,248.167 74.1667,247.333 75,246.5C 88.2582,146.25 143.092,81.0829 239.5,51C 259.003,45.7512 278.669,42.2512 298.5,40.5 Z"/></g>
<g><path style="opacity:0.975" fill="#00a77d" d="M 526.5,314.5 C 528.512,315.228 530.512,316.062 532.5,317C 549,339.5 565.5,362 582,384.5C 583.414,388.752 581.914,391.252 577.5,392C 569.833,392.333 562.167,392.667 554.5,393C 553.667,393.833 552.833,394.667 552,395.5C 539.621,492.806 487.121,557.306 394.5,589C 320.731,610.803 250.064,603.47 182.5,567C 121.64,529.841 86.4731,475.675 77,404.5C 76.2028,394.469 75.3694,384.469 74.5,374.5C 74.5733,371.326 75.0733,367.993 76,364.5C 77.1667,362.667 78.6667,361.167 80.5,360C 93.5,359.333 106.5,359.333 119.5,360C 121.378,361.543 122.878,363.376 124,365.5C 123.216,413.159 137.883,455.159 168,491.5C 202.568,527.029 244.735,546.862 294.5,551C 344.716,555.475 390.716,543.808 432.5,516C 473.072,486.026 495.238,445.859 499,395.5C 498.5,395 498,394.5 497.5,394C 489.938,392.733 482.271,392.066 474.5,392C 471.125,390.971 469.958,388.804 471,385.5C 487.333,363.5 503.667,341.5 520,319.5C 521.805,317.174 523.972,315.508 526.5,314.5 Z"/></g>
</svg>
